<svg width="18" height="18" viewBox="0 0 18 18" fill="none" xmlns="http://www.w3.org/2000/svg">
<path d="M9.00515 1.62102C11.4113 1.62102 11.6962 1.63157 12.6424 1.67376C13.5219 1.71244 13.9968 1.86013 14.3133 1.9832C14.7319 2.14495 15.0345 2.34186 15.3475 2.65482C15.6641 2.97128 15.8576 3.27017 16.0194 3.68861C16.1425 4.00508 16.2903 4.4833 16.329 5.35886C16.3712 6.30826 16.3817 6.59308 16.3817 8.99473C16.3817 11.3999 16.3712 11.6847 16.329 12.6306C16.2903 13.5097 16.1425 13.9844 16.0194 14.3008C15.8576 14.7193 15.6606 15.0217 15.3475 15.3346C15.0309 15.6511 14.7319 15.8445 14.3133 16.0063C13.9968 16.1293 13.5183 16.277 12.6424 16.3157C11.6927 16.3579 11.4077 16.3684 9.00515 16.3684C6.59906 16.3684 6.31412 16.3579 5.36787 16.3157C4.48845 16.277 4.01356 16.1293 3.69697 16.0063C3.27836 15.8445 2.97584 15.6476 2.66277 15.3346C2.34617 15.0182 2.1527 14.7193 1.99089 14.3008C1.86777 13.9844 1.72003 13.5062 1.68133 12.6306C1.63912 11.6812 1.62857 11.3964 1.62857 8.99473C1.62857 6.58957 1.63912 6.30475 1.68133 5.35886C1.72003 4.47978 1.86777 4.00508 1.99089 3.68861C2.1527 3.27017 2.34969 2.96777 2.66277 2.65482C2.97936 2.33835 3.27836 2.14495 3.69697 1.9832C4.01356 1.86013 4.49196 1.71244 5.36787 1.67376C6.31412 1.63157 6.59906 1.62102 9.00515 1.62102ZM9.00515 0C6.56036 0 6.25432 0.0105489 5.294 0.0527447C4.33718 0.0949404 3.67938 0.249658 3.10951 0.471186C2.51502 0.703262 2.01199 1.00918 1.51248 1.51201C1.00945 2.01133 0.703415 2.51416 0.471248 3.1049C0.249634 3.67806 0.0948555 4.3321 0.0526432 5.28853C0.010431 6.252 -0.00012207 6.55792 -0.00012207 9.00176C-0.00012207 11.4456 0.010431 11.7515 0.0526432 12.7115C0.0948555 13.6679 0.249634 14.3255 0.471248 14.8951C0.703415 15.4894 1.00945 15.9922 1.51248 16.4915C2.01199 16.9908 2.51502 17.3003 3.10599 17.5288C3.67938 17.7503 4.33367 17.9051 5.29048 17.9473C6.25081 17.9895 6.55684 18 9.00164 18C11.4464 18 11.7525 17.9895 12.7128 17.9473C13.6696 17.9051 14.3274 17.7503 14.8973 17.5288C15.4883 17.3003 15.9913 16.9908 16.4908 16.4915C16.9903 15.9922 17.2999 15.4894 17.5285 14.8986C17.7501 14.3255 17.9049 13.6714 17.9471 12.715C17.9893 11.755 17.9999 11.4491 17.9999 9.00527C17.9999 6.56144 17.9893 6.25552 17.9471 5.29557C17.9049 4.33913 17.7501 3.68158 17.5285 3.11194C17.3069 2.51416 17.0009 2.01133 16.4978 1.51201C15.9983 1.0127 15.4953 0.703262 14.9043 0.474702C14.3309 0.253174 13.6766 0.0984567 12.7198 0.056261C11.756 0.0105489 11.4499 0 9.00515 0Z" fill="#211E1D"/>
<path d="M9.00515 4.37781C6.45131 4.37781 4.3794 6.44892 4.3794 9.00176C4.3794 11.5546 6.45131 13.6257 9.00515 13.6257C11.559 13.6257 13.6309 11.5546 13.6309 9.00176C13.6309 6.44892 11.559 4.37781 9.00515 4.37781ZM9.00515 12.0012C7.34832 12.0012 6.00457 10.6579 6.00457 9.00176C6.00457 7.34558 7.34832 6.00234 9.00515 6.00234C10.662 6.00234 12.0057 7.34558 12.0057 9.00176C12.0057 10.6579 10.662 12.0012 9.00515 12.0012Z" fill="#211E1D"/>
<path d="M14.8938 4.19493C14.8938 4.7927 14.4083 5.27444 13.8138 5.27444C13.2158 5.27444 12.7339 4.78919 12.7339 4.19493C12.7339 3.59715 13.2193 3.11542 13.8138 3.11542C14.4083 3.11542 14.8938 3.60067 14.8938 4.19493Z" fill="#211E1D"/>
</svg>
