<svg width="18" height="18" viewBox="0 0 18 18" fill="none" xmlns="http://www.w3.org/2000/svg">
<path d="M9.00018 0C4.02909 0 0.000183105 4.02891 0.000183105 9C0.000183105 12.8145 2.37323 16.0699 5.7201 17.3812C5.64276 16.6676 5.56893 15.5777 5.75175 14.8008C5.91698 14.0977 6.80643 10.3289 6.80643 10.3289C6.80643 10.3289 6.53573 9.79102 6.53573 8.99297C6.53573 7.74141 7.25995 6.80625 8.16346 6.80625C8.92987 6.80625 9.30253 7.38281 9.30253 8.07539C9.30253 8.84883 8.81034 10.002 8.55721 11.0707C8.34628 11.9672 9.00721 12.6984 9.88964 12.6984C11.4892 12.6984 12.7197 11.0109 12.7197 8.57812C12.7197 6.42305 11.1728 4.91484 8.96151 4.91484C6.40214 4.91484 4.89745 6.83437 4.89745 8.8207C4.89745 9.59414 5.19628 10.4238 5.56893 10.8738C5.64276 10.9617 5.65331 11.0426 5.63221 11.1305C5.56542 11.4152 5.41073 12.027 5.38261 12.15C5.34393 12.3152 5.25253 12.3504 5.08026 12.2695C3.95526 11.7457 3.25214 10.1039 3.25214 8.78203C3.25214 5.94141 5.31581 3.33633 9.19706 3.33633C12.3189 3.33633 14.7447 5.56172 14.7447 8.53594C14.7447 11.6367 12.79 14.1328 10.076 14.1328C9.16542 14.1328 8.3076 13.6582 8.01229 13.0992C8.01229 13.0992 7.56229 14.8184 7.45331 15.2402C7.2494 16.0207 6.70096 17.0016 6.33534 17.5992C7.17909 17.8594 8.07206 18 9.00018 18C13.9713 18 18.0002 13.9711 18.0002 9C18.0002 4.02891 13.9713 0 9.00018 0Z" fill="#211E1D"/>
</svg>
